<?xml version="1.0" encoding="UTF-8" standalone="no"?>
<!-- Creator: CorelDRAW X6 -->

<svg
   xml:space="preserve"
   width="23.188969mm"
   height="23.188969mm"
   version="1.1"
   style="clip-rule:evenodd;fill-rule:evenodd;image-rendering:optimizeQuality;shape-rendering:geometricPrecision;text-rendering:geometricPrecision"
   viewBox="0 0 21379.453 21379.999"
   id="svg2"
   inkscape:version="1.4.4 (dcaf3e7d9e, 2026-05-05)"
   sodipodi:docname="CoderDojoPotsdamLogo.svg"
   inkscape:export-filename="CoderDojoPotsdam.png"
   inkscape:export-xdpi="1121.6367"
   inkscape:export-ydpi="1121.6367"
   xmlns:inkscape="http://www.inkscape.org/namespaces/inkscape"
   xmlns:sodipodi="http://sodipodi.sourceforge.net/DTD/sodipodi-0.dtd"
   xmlns="http://www.w3.org/2000/svg"
   xmlns:svg="http://www.w3.org/2000/svg"
   xmlns:rdf="http://www.w3.org/1999/02/22-rdf-syntax-ns#"
   xmlns:cc="http://creativecommons.org/ns#"
   xmlns:dc="http://purl.org/dc/elements/1.1/"><metadata
   id="metadata23"><rdf:RDF><cc:Work
       rdf:about=""><dc:format>image/svg+xml</dc:format><dc:type
         rdf:resource="http://purl.org/dc/dcmitype/StillImage" /></cc:Work></rdf:RDF></metadata><sodipodi:namedview
   pagecolor="#ffffff"
   bordercolor="#666666"
   borderopacity="1"
   objecttolerance="10"
   gridtolerance="10"
   guidetolerance="10"
   inkscape:pageopacity="0"
   inkscape:pageshadow="2"
   inkscape:window-width="2560"
   inkscape:window-height="1412"
   id="namedview21"
   showgrid="false"
   inkscape:zoom="4.8334115"
   inkscape:cx="34.551165"
   inkscape:cy="55.343933"
   inkscape:window-x="0"
   inkscape:window-y="0"
   inkscape:window-maximized="1"
   inkscape:current-layer="Layer_x0020_1"
   inkscape:showpageshadow="2"
   inkscape:pagecheckerboard="0"
   inkscape:deskcolor="#d1d1d1"
   inkscape:document-units="mm"
   inkscape:export-bgcolor="#ffffff00" />
 <defs
   id="defs4">
  <style
   type="text/css"
   id="style6">
   
    .fil1 {fill:#FEFEFE}
    .fil0 {fill:black}
    .fil2 {fill:white}
   
  </style>
 
   
   
   
   
  </defs>
 <g
   inkscape:groupmode="layer"
   id="layer1"
   inkscape:label="White Layer"
   style="clip-rule:evenodd;fill-rule:evenodd;image-rendering:optimizeQuality;shape-rendering:geometricPrecision;text-rendering:geometricPrecision"
   transform="scale(0.9999988)"><ellipse
     style="clip-rule:evenodd;fill-rule:evenodd;image-rendering:optimizeQuality;shape-rendering:geometricPrecision;text-rendering:geometricPrecision;fill:#ffffff;stroke-width:734.556"
     id="path2"
     cx="10690"
     cy="10689.999"
     rx="10236.608"
     ry="10616.349"
     transform="translate(-0.96980784)" /></g><g
   id="Layer_x0020_1"
   inkscape:label="Black Layer"
   inkscape:groupmode="layer"
   transform="translate(-0.96980788)">
  <metadata
   id="CorelCorpID_0Corel-Layer" />
  
  <g
   id="g1"><path
     class="fil0"
     d="m 10690,0 c 5904,0 10690,4786 10690,10690 0,5904 -4786,10690 -10690,10690 C 4786,21380 0,16594 0,10690 0,4786 4786,0 10690,0 Z m -108,553 c -50,0 -100,1 -150,2 -5528,80 -9989,4590 -9989,10136 0,5553 4471,10066 10008,10136 -2738,-69 -4938,-2313 -4938,-5067 0,-2798 2271,-5069 5069,-5069 2798,0 5069,-2271 5069,-5069 0,-2798 -2271,-5069 -5069,-5069 z"
     id="path15" /><path
     class="fil0"
     d="M 8982,6619 V 2840 c 0,-165 60,-308 181,-428 120,-120 263,-181 429,-181 h 1970 c 163,0 304,60 423,181 119,120 178,263 178,428 v 3779 c 0,168 -60,311 -178,430 -119,119 -263,178 -431,178 H 9592 c -170,0 -315,-59 -433,-178 -118,-119 -176,-262 -176,-430 z m 2557,-23 V 2871 H 9614 v 3725 z"
     id="path17" /><path
     class="fil2"
     d="m 9702,18043 h 970 v -3725 h -954 c -88,0 -162,-31 -224,-92 -62,-61 -92,-136 -92,-224 0,-87 31,-162 92,-223 61,-61 136,-92 224,-92 h 1586 v 4357 h 632 v -1315 c 0,-85 31,-159 92,-222 61,-63 136,-94 223,-94 88,0 163,31 224,92 61,62 92,136 92,224 v 1631 c 0,88 -31,163 -92,225 -61,61 -135,91 -224,91 H 9702 c -88,0 -162,-32 -223,-95 -62,-64 -92,-140 -92,-228 0,-85 31,-158 92,-219 61,-60 136,-90 223,-90 z"
     id="path19" /></g><path
   id="path1"
   style="display:inline;fill:none;stroke-width:407.532"
   d="M 14764.588,2163.2996 A 9450.5479,9449.9316 25.537575 0 0 2163.4408,6615.8406 9450.5479,9449.9316 25.537575 0 0 6616.8021,19216.698 9450.5479,9449.9316 25.537575 0 0 19217.952,14764.158 9450.5479,9449.9316 25.537575 0 0 14764.588,2163.2996 Z" />
 </g>
</svg>
